<?xml version="1.0" standalone="no"?><!DOCTYPE svg PUBLIC "-//W3C//DTD SVG 1.1//EN" "http://www.w3.org/Graphics/SVG/1.1/DTD/svg11.dtd"><svg class="icon" width="200px" height="200.00px" viewBox="0 0 1024 1024" version="1.1" xmlns="http://www.w3.org/2000/svg"><path fill="#333333" d="M534.528 950.016c-25.6 0-51.2-6.4-76.8-19.2l-224-128c-38.4-19.2-64-51.2-70.4-96-12.8-38.4-6.4-76.8 12.8-115.2l172.8-300.8c6.4-6.4 19.2-19.2 32-25.6l249.6-166.4c51.2-32 108.8-32 160-6.4 51.2 32 76.8 83.2 76.8 140.8l-19.2 300.8c0 12.8-6.4 25.6-12.8 38.4l-172.8 300.8c-19.2 38.4-51.2 64-96 70.4-6.4 6.4-19.2 6.4-32 6.4z m179.2-825.6c-19.2 0-38.4 6.4-57.6 19.2l-249.6 160c-6.4 6.4-6.4 12.8-12.8 12.8l-172.8 300.8c-12.8 25.6-19.2 51.2-6.4 76.8 6.4 25.6 25.6 51.2 44.8 64l224 128c25.6 12.8 51.2 19.2 76.8 12.8 25.6-6.4 51.2-25.6 64-44.8l172.8-300.8v-19.2l19.2-300.8c0-38.4-19.2-76.8-51.2-96-19.2-6.4-32-12.8-51.2-12.8z m-121.6 448c-64 0-121.6-57.6-121.6-121.6 0-64 51.2-121.6 121.6-121.6 70.4 0 121.6 57.6 121.6 121.6 0 12.8-12.8 25.6-25.6 25.6s-25.6-12.8-25.6-25.6c0-38.4-32-70.4-70.4-70.4-38.4 0-70.4 32-70.4 70.4 0 38.4 32 70.4 70.4 70.4 12.8 0 32-6.4 44.8-12.8 6.4-12.8 25.6-6.4 32 0 12.8 12.8 12.8 32 0 38.4-25.6 19.2-51.2 25.6-76.8 25.6z"  /></svg>